# xmcd
#
# Track frame offsets:
#	150
#	17685
#	33017
#	47944
#	62605
#	79782
#	93250
#	110204
#	123505
#
# Disc length: 1845 seconds
#
# Revision: 1
# Processed by: cddbd v1.5.2PL0 Copyright (c) Steve Scherf et al.
# Submitted via: audiograbber 1.83.01
#
DISCID=6e073309
DTITLE=Glenn Claes - Back Where My World Began
DYEAR=2015
DGENRE=Pop
TTITLE0=Back Where My World Began
TTITLE1=Chit Chat
TTITLE2=Devil In Their Eyes
TTITLE3=Face In The Light
TTITLE4=Father And Son
TTITLE5=Hourglass
TTITLE6=Little Lies
TTITLE7=Mama Don't
TTITLE8=Where We Belong
EXTD=
EXTT0=
EXTT1=
EXTT2=
EXTT3=
EXTT4=
EXTT5=
EXTT6=
EXTT7=
EXTT8=
PLAYORDER=
